<mxfile host="app.diagrams.net" modified="2023-02-06T20:05:30.122Z" agent="5.0 (Windows NT 10.0; Win64; x64) AppleWebKit/537.36 (KHTML, like Gecko) Chrome/109.0.0.0 Safari/537.36" etag="7mGuJDrlbQwm1jKyUwZl" version="20.5.1" type="github">
  <diagram id="xzCoyiNCGajoSQ4GJbQJ" name="Страница 1">
    <mxGraphModel dx="1818" dy="1175" grid="1" gridSize="10" guides="1" tooltips="1" connect="1" arrows="1" fold="1" page="0" pageScale="1" pageWidth="1169" pageHeight="827" background="#003366" math="0" shadow="0">
      <root>
        <mxCell id="0" />
        <mxCell id="1" parent="0" />
        <mxCell id="N5uYOlMwzdbbFmkBd_oy-40" value="Kubernetes Worker Node 1" style="rounded=0;whiteSpace=wrap;html=1;gradientColor=none;fillColor=none;dashed=1;strokeColor=#FFFF66;fontColor=#FFFF66;verticalAlign=top;" vertex="1" parent="1">
          <mxGeometry x="520" y="360" width="240" height="240" as="geometry" />
        </mxCell>
        <mxCell id="N5uYOlMwzdbbFmkBd_oy-52" value="Kubernetes Cluster" style="rounded=0;whiteSpace=wrap;html=1;strokeColor=default;fontSize=9;fontColor=#FFFF66;fillColor=none;gradientColor=none;dashed=1;verticalAlign=top;" vertex="1" parent="1">
          <mxGeometry x="41" y="160" width="1120" height="480" as="geometry" />
        </mxCell>
        <mxCell id="N5uYOlMwzdbbFmkBd_oy-1" value="Kubernetes Master Node" style="rounded=0;whiteSpace=wrap;html=1;gradientColor=none;fillColor=none;dashed=1;strokeColor=#FFFF66;fontColor=#FFFF66;verticalAlign=top;" vertex="1" parent="1">
          <mxGeometry x="80" y="200" width="400" height="400" as="geometry" />
        </mxCell>
        <mxCell id="N5uYOlMwzdbbFmkBd_oy-19" value="" style="group" vertex="1" connectable="0" parent="1">
          <mxGeometry x="100" y="260" width="140" height="80" as="geometry" />
        </mxCell>
        <mxCell id="N5uYOlMwzdbbFmkBd_oy-16" value="" style="rounded=0;whiteSpace=wrap;html=1;dashed=1;strokeColor=#FFFF66;fontColor=#FFFF66;fillColor=#004C99;gradientColor=none;" vertex="1" parent="N5uYOlMwzdbbFmkBd_oy-19">
          <mxGeometry width="120" height="60" as="geometry" />
        </mxCell>
        <mxCell id="N5uYOlMwzdbbFmkBd_oy-17" value="" style="rounded=0;whiteSpace=wrap;html=1;dashed=1;strokeColor=#FFFF66;fontColor=#FFFF66;fillColor=#004C99;gradientColor=none;" vertex="1" parent="N5uYOlMwzdbbFmkBd_oy-19">
          <mxGeometry x="10" y="10" width="120" height="60" as="geometry" />
        </mxCell>
        <mxCell id="N5uYOlMwzdbbFmkBd_oy-18" value="kube-controller-manager" style="rounded=0;whiteSpace=wrap;html=1;dashed=1;strokeColor=#FFFF66;fontColor=#FFFF66;fillColor=#004C99;gradientColor=none;fontSize=9;" vertex="1" parent="N5uYOlMwzdbbFmkBd_oy-19">
          <mxGeometry x="20" y="20" width="120" height="60" as="geometry" />
        </mxCell>
        <mxCell id="N5uYOlMwzdbbFmkBd_oy-20" value="" style="group" vertex="1" connectable="0" parent="1">
          <mxGeometry x="300" y="260" width="140" height="80" as="geometry" />
        </mxCell>
        <mxCell id="N5uYOlMwzdbbFmkBd_oy-21" value="" style="rounded=0;whiteSpace=wrap;html=1;dashed=1;strokeColor=#FFFF66;fontColor=#FFFF66;fillColor=#004C99;gradientColor=none;" vertex="1" parent="N5uYOlMwzdbbFmkBd_oy-20">
          <mxGeometry width="120" height="60" as="geometry" />
        </mxCell>
        <mxCell id="N5uYOlMwzdbbFmkBd_oy-22" value="" style="rounded=0;whiteSpace=wrap;html=1;dashed=1;strokeColor=#FFFF66;fontColor=#FFFF66;fillColor=#004C99;gradientColor=none;" vertex="1" parent="N5uYOlMwzdbbFmkBd_oy-20">
          <mxGeometry x="10" y="10" width="120" height="60" as="geometry" />
        </mxCell>
        <mxCell id="N5uYOlMwzdbbFmkBd_oy-23" value="kube-controller-manager" style="rounded=0;whiteSpace=wrap;html=1;dashed=1;strokeColor=#FFFF66;fontColor=#FFFF66;fillColor=#004C99;gradientColor=none;fontSize=9;" vertex="1" parent="N5uYOlMwzdbbFmkBd_oy-20">
          <mxGeometry x="20" y="20" width="120" height="60" as="geometry" />
        </mxCell>
        <mxCell id="N5uYOlMwzdbbFmkBd_oy-32" style="edgeStyle=orthogonalEdgeStyle;rounded=0;orthogonalLoop=1;jettySize=auto;html=1;entryX=0.5;entryY=1;entryDx=0;entryDy=0;strokeColor=#FFFF66;fontSize=9;fontColor=#FFFF66;endArrow=blockThin;endFill=1;startArrow=blockThin;startFill=1;" edge="1" parent="1" source="N5uYOlMwzdbbFmkBd_oy-24" target="N5uYOlMwzdbbFmkBd_oy-23">
          <mxGeometry relative="1" as="geometry" />
        </mxCell>
        <mxCell id="N5uYOlMwzdbbFmkBd_oy-33" style="edgeStyle=orthogonalEdgeStyle;rounded=0;orthogonalLoop=1;jettySize=auto;html=1;entryX=0.5;entryY=1;entryDx=0;entryDy=0;strokeColor=#FFFF66;fontSize=9;fontColor=#FFFF66;startArrow=blockThin;startFill=1;endArrow=blockThin;endFill=1;" edge="1" parent="1" source="N5uYOlMwzdbbFmkBd_oy-24" target="N5uYOlMwzdbbFmkBd_oy-18">
          <mxGeometry relative="1" as="geometry" />
        </mxCell>
        <mxCell id="N5uYOlMwzdbbFmkBd_oy-34" style="edgeStyle=orthogonalEdgeStyle;rounded=0;orthogonalLoop=1;jettySize=auto;html=1;entryX=0.5;entryY=0;entryDx=0;entryDy=0;strokeColor=#FFFF66;fontSize=9;fontColor=#FFFF66;startArrow=blockThin;startFill=1;endArrow=blockThin;endFill=1;exitX=1;exitY=0.75;exitDx=0;exitDy=0;" edge="1" parent="1" source="N5uYOlMwzdbbFmkBd_oy-24" target="N5uYOlMwzdbbFmkBd_oy-26">
          <mxGeometry relative="1" as="geometry">
            <Array as="points">
              <mxPoint x="360" y="425" />
            </Array>
          </mxGeometry>
        </mxCell>
        <mxCell id="N5uYOlMwzdbbFmkBd_oy-35" style="edgeStyle=orthogonalEdgeStyle;rounded=0;orthogonalLoop=1;jettySize=auto;html=1;entryX=1;entryY=0.5;entryDx=0;entryDy=0;strokeColor=#FFFF66;fontSize=9;fontColor=#FFFF66;startArrow=blockThin;startFill=1;endArrow=blockThin;endFill=1;exitX=0;exitY=0.5;exitDx=0;exitDy=0;" edge="1" parent="1" source="N5uYOlMwzdbbFmkBd_oy-24" target="N5uYOlMwzdbbFmkBd_oy-31">
          <mxGeometry relative="1" as="geometry">
            <Array as="points">
              <mxPoint x="170" y="410" />
            </Array>
          </mxGeometry>
        </mxCell>
        <mxCell id="N5uYOlMwzdbbFmkBd_oy-43" style="edgeStyle=orthogonalEdgeStyle;rounded=0;orthogonalLoop=1;jettySize=auto;html=1;entryX=0;entryY=0.5;entryDx=0;entryDy=0;strokeColor=#FFFF66;fontSize=9;fontColor=#FFFF66;startArrow=none;startFill=0;endArrow=blockThin;endFill=1;" edge="1" parent="1" source="N5uYOlMwzdbbFmkBd_oy-24" target="N5uYOlMwzdbbFmkBd_oy-41">
          <mxGeometry relative="1" as="geometry">
            <Array as="points">
              <mxPoint x="560" y="410" />
              <mxPoint x="560" y="460" />
            </Array>
          </mxGeometry>
        </mxCell>
        <mxCell id="N5uYOlMwzdbbFmkBd_oy-44" style="edgeStyle=orthogonalEdgeStyle;rounded=0;orthogonalLoop=1;jettySize=auto;html=1;entryX=0;entryY=0.5;entryDx=0;entryDy=0;strokeColor=#FFFF66;fontSize=9;fontColor=#FFFF66;startArrow=none;startFill=0;endArrow=blockThin;endFill=1;" edge="1" parent="1" source="N5uYOlMwzdbbFmkBd_oy-24" target="N5uYOlMwzdbbFmkBd_oy-42">
          <mxGeometry relative="1" as="geometry">
            <Array as="points">
              <mxPoint x="560" y="410" />
              <mxPoint x="560" y="540" />
            </Array>
          </mxGeometry>
        </mxCell>
        <mxCell id="N5uYOlMwzdbbFmkBd_oy-49" style="edgeStyle=orthogonalEdgeStyle;rounded=0;orthogonalLoop=1;jettySize=auto;html=1;entryX=0;entryY=0.5;entryDx=0;entryDy=0;strokeColor=#FFFF66;fontSize=9;fontColor=#FFFF66;startArrow=none;startFill=0;endArrow=none;endFill=0;" edge="1" parent="1" source="N5uYOlMwzdbbFmkBd_oy-24" target="N5uYOlMwzdbbFmkBd_oy-48">
          <mxGeometry relative="1" as="geometry" />
        </mxCell>
        <mxCell id="N5uYOlMwzdbbFmkBd_oy-24" value="kube-apiserver" style="rounded=0;whiteSpace=wrap;html=1;strokeColor=#FFFF66;fontSize=9;fontColor=#FFFF66;fillColor=#004C99;gradientColor=none;" vertex="1" parent="1">
          <mxGeometry x="220" y="380" width="120" height="60" as="geometry" />
        </mxCell>
        <mxCell id="N5uYOlMwzdbbFmkBd_oy-25" value="" style="group" vertex="1" connectable="0" parent="1">
          <mxGeometry x="300" y="480" width="140" height="80" as="geometry" />
        </mxCell>
        <mxCell id="N5uYOlMwzdbbFmkBd_oy-26" value="" style="rounded=0;whiteSpace=wrap;html=1;dashed=1;strokeColor=#FFFF66;fontColor=#FFFF66;fillColor=#004C99;gradientColor=none;" vertex="1" parent="N5uYOlMwzdbbFmkBd_oy-25">
          <mxGeometry width="120" height="60" as="geometry" />
        </mxCell>
        <mxCell id="N5uYOlMwzdbbFmkBd_oy-27" value="" style="rounded=0;whiteSpace=wrap;html=1;dashed=1;strokeColor=#FFFF66;fontColor=#FFFF66;fillColor=#004C99;gradientColor=none;" vertex="1" parent="N5uYOlMwzdbbFmkBd_oy-25">
          <mxGeometry x="10" y="10" width="120" height="60" as="geometry" />
        </mxCell>
        <mxCell id="N5uYOlMwzdbbFmkBd_oy-28" value="kube-scheduler" style="rounded=0;whiteSpace=wrap;html=1;dashed=1;strokeColor=#FFFF66;fontColor=#FFFF66;fillColor=#004C99;gradientColor=none;fontSize=9;" vertex="1" parent="N5uYOlMwzdbbFmkBd_oy-25">
          <mxGeometry x="20" y="20" width="120" height="60" as="geometry" />
        </mxCell>
        <mxCell id="N5uYOlMwzdbbFmkBd_oy-31" value="etcd" style="shape=datastore;whiteSpace=wrap;html=1;strokeColor=#FFFF66;fontSize=9;fontColor=#FFFF66;fillColor=#004C99;gradientColor=none;" vertex="1" parent="1">
          <mxGeometry x="110" y="380" width="60" height="60" as="geometry" />
        </mxCell>
        <mxCell id="N5uYOlMwzdbbFmkBd_oy-41" value="kubelet" style="rounded=0;whiteSpace=wrap;html=1;strokeColor=#FFFF66;fontSize=9;fontColor=#FFFF66;fillColor=#004C99;gradientColor=none;" vertex="1" parent="1">
          <mxGeometry x="600" y="430" width="120" height="60" as="geometry" />
        </mxCell>
        <mxCell id="N5uYOlMwzdbbFmkBd_oy-42" value="kube-proxy" style="rounded=0;whiteSpace=wrap;html=1;strokeColor=#FFFF66;fontSize=9;fontColor=#FFFF66;fillColor=#004C99;gradientColor=none;" vertex="1" parent="1">
          <mxGeometry x="600" y="510" width="120" height="60" as="geometry" />
        </mxCell>
        <mxCell id="N5uYOlMwzdbbFmkBd_oy-45" value="Kubernetes Worker Node n" style="rounded=0;whiteSpace=wrap;html=1;gradientColor=none;fillColor=none;dashed=1;strokeColor=#FFFF66;fontColor=#FFFF66;verticalAlign=top;" vertex="1" parent="1">
          <mxGeometry x="880" y="360" width="240" height="240" as="geometry" />
        </mxCell>
        <mxCell id="N5uYOlMwzdbbFmkBd_oy-46" value="kubelet" style="rounded=0;whiteSpace=wrap;html=1;strokeColor=#FFFF66;fontSize=9;fontColor=#FFFF66;fillColor=#004C99;gradientColor=none;" vertex="1" parent="1">
          <mxGeometry x="960" y="430" width="120" height="60" as="geometry" />
        </mxCell>
        <mxCell id="N5uYOlMwzdbbFmkBd_oy-47" value="kube-proxy" style="rounded=0;whiteSpace=wrap;html=1;strokeColor=#FFFF66;fontSize=9;fontColor=#FFFF66;fillColor=#004C99;gradientColor=none;" vertex="1" parent="1">
          <mxGeometry x="960" y="510" width="120" height="60" as="geometry" />
        </mxCell>
        <mxCell id="N5uYOlMwzdbbFmkBd_oy-50" style="edgeStyle=orthogonalEdgeStyle;rounded=0;orthogonalLoop=1;jettySize=auto;html=1;entryX=0;entryY=0.5;entryDx=0;entryDy=0;strokeColor=#FFFF66;fontSize=9;fontColor=#FFFF66;startArrow=none;startFill=0;endArrow=blockThin;endFill=1;" edge="1" parent="1" source="N5uYOlMwzdbbFmkBd_oy-48" target="N5uYOlMwzdbbFmkBd_oy-46">
          <mxGeometry relative="1" as="geometry">
            <Array as="points">
              <mxPoint x="920" y="410" />
              <mxPoint x="920" y="460" />
            </Array>
          </mxGeometry>
        </mxCell>
        <mxCell id="N5uYOlMwzdbbFmkBd_oy-51" style="edgeStyle=orthogonalEdgeStyle;rounded=0;orthogonalLoop=1;jettySize=auto;html=1;entryX=0;entryY=0.5;entryDx=0;entryDy=0;strokeColor=#FFFF66;fontSize=9;fontColor=#FFFF66;startArrow=none;startFill=0;endArrow=blockThin;endFill=1;" edge="1" parent="1" source="N5uYOlMwzdbbFmkBd_oy-48" target="N5uYOlMwzdbbFmkBd_oy-47">
          <mxGeometry relative="1" as="geometry">
            <Array as="points">
              <mxPoint x="920" y="410" />
              <mxPoint x="920" y="540" />
            </Array>
          </mxGeometry>
        </mxCell>
        <mxCell id="N5uYOlMwzdbbFmkBd_oy-48" value="..." style="rounded=1;whiteSpace=wrap;html=1;strokeColor=#FFFF66;fontSize=9;fontColor=#FFFF66;fillColor=#004C99;gradientColor=none;" vertex="1" parent="1">
          <mxGeometry x="800" y="397.5" width="40" height="25" as="geometry" />
        </mxCell>
        <mxCell id="N5uYOlMwzdbbFmkBd_oy-56" style="edgeStyle=orthogonalEdgeStyle;rounded=0;orthogonalLoop=1;jettySize=auto;html=1;strokeColor=#FFFF66;fontSize=9;fontColor=#FFFF66;startArrow=none;startFill=0;endArrow=blockThin;endFill=1;entryX=0.5;entryY=1;entryDx=0;entryDy=0;" edge="1" parent="1" source="N5uYOlMwzdbbFmkBd_oy-21" target="N5uYOlMwzdbbFmkBd_oy-57">
          <mxGeometry relative="1" as="geometry">
            <mxPoint x="420" y="150" as="targetPoint" />
            <Array as="points">
              <mxPoint x="380" y="130" />
              <mxPoint x="380" y="130" />
            </Array>
          </mxGeometry>
        </mxCell>
        <mxCell id="N5uYOlMwzdbbFmkBd_oy-57" value="Cloud" style="rounded=1;whiteSpace=wrap;html=1;dashed=1;strokeColor=#004C99;fontSize=9;fontColor=#FFFF66;fillColor=#006666;gradientColor=none;" vertex="1" parent="1">
          <mxGeometry x="320" y="60" width="120" height="60" as="geometry" />
        </mxCell>
        <mxCell id="N5uYOlMwzdbbFmkBd_oy-58" value="Secrets" style="rounded=0;whiteSpace=wrap;html=1;strokeColor=#FFFF66;fontSize=9;fontColor=#FFFF66;fillColor=#004C99;gradientColor=none;" vertex="1" parent="1">
          <mxGeometry x="520" y="200" width="120" height="60" as="geometry" />
        </mxCell>
      </root>
    </mxGraphModel>
  </diagram>
</mxfile>
